<?xml version="1.0" encoding="utf-8"?>
<!-- Generator: Adobe Illustrator 15.0.0, SVG Export Plug-In . SVG Version: 6.00 Build 0)  -->
<!DOCTYPE svg PUBLIC "-//W3C//DTD SVG 1.1//EN" "http://www.w3.org/Graphics/SVG/1.1/DTD/svg11.dtd">
<svg version="1.1" id="Layer_1" xmlns="http://www.w3.org/2000/svg" xmlns:xlink="http://www.w3.org/1999/xlink" x="0px" y="0px"
	 width="290px" height="72px" viewBox="0 0 290 72" enable-background="new 0 0 290 72" xml:space="preserve">
<path fill="#FFFFFF" d="M42.368,65.534c-0.372-0.034-0.743-0.067-1.116-0.099c-4.769-0.379-9.194-1.818-13.258-4.343
	c-0.904-0.561-1.757-1.2-2.62-1.819c-0.498-0.357-0.503-0.698-0.062-1.133c1.682-1.679,3.372-3.354,5.05-5.033
	c0.351-0.352,0.729-0.479,1.223-0.31c0.782,0.269,1.562,0.199,2.303-0.168c0.434-0.213,0.826-0.213,1.258,0.033
	c2.127,1.221,4.414,1.989,6.842,2.315c0.766,0.104,1.542,0.156,2.316,0.166c0.455,0.006,0.804,0.11,1.031,0.52v9.357
	c-0.17,0.17-0.34,0.343-0.509,0.512L42.368,65.534L42.368,65.534z"/>
<path fill="#FFFFFF" d="M45.274,16.336c-0.225,0.408-0.576,0.506-1.03,0.514c-3.202,0.036-6.209,0.838-9.006,2.406
	c-0.497,0.276-0.934,0.307-1.442,0.045c-0.726-0.371-1.503-0.412-2.28-0.153c-0.48,0.161-0.858,0.045-1.2-0.298
	c-1.682-1.681-3.367-3.354-5.054-5.033c-0.407-0.409-0.391-0.751,0.067-1.108c2.933-2.284,6.186-3.956,9.749-5.016
	c2.254-0.668,4.554-1.064,6.903-1.181c0.11-0.007,0.217-0.032,0.326-0.046h2.453c0.173,0.172,0.343,0.342,0.513,0.512L45.274,16.336
	L45.274,16.336z"/>
<path fill="#FFFFFF" d="M45.334,52.953c-0.201,0.4-0.517,0.536-0.97,0.525c-2.789-0.053-5.418-0.72-7.896-2.004
	c-0.068-0.035-0.134-0.074-0.201-0.111c-0.517-0.291-0.677-0.592-0.582-1.172c0.081-0.492,0.028-0.969-0.134-1.433
	c-0.147-0.424-0.042-0.771,0.258-1.069c1.769-1.769,3.547-3.532,5.321-5.299c0.342-0.341,0.686-0.383,1.112-0.152
	c0.763,0.41,1.573,0.682,2.435,0.799c0.332,0.045,0.483,0.314,0.657,0.559V52.953z"/>
<path fill="#FFFFFF" d="M45.334,28.404c-0.207,0.357-0.501,0.561-0.933,0.615c-0.759,0.092-1.464,0.371-2.138,0.725
	c-0.441,0.238-0.747,0.189-1.102-0.164c-1.776-1.764-3.551-3.532-5.329-5.298c-0.322-0.322-0.432-0.684-0.271-1.136
	c0.16-0.444,0.205-0.908,0.126-1.382c-0.086-0.507,0.083-0.856,0.533-1.104c1.873-1.024,3.866-1.689,5.982-1.964
	c0.715-0.097,1.444-0.101,2.161-0.173c0.454-0.046,0.77,0.121,0.97,0.52L45.334,28.404L45.334,28.404z"/>
<path fill="#FFFFFF" d="M18.536,35.156h-3.861c-0.461,0-0.774-0.312-0.749-0.767c0.121-2.262,0.497-4.482,1.137-6.656
	c1.017-3.455,2.62-6.622,4.797-9.493c0.902-1.194,1.889-2.31,2.959-3.352c0.396-0.39,0.729-0.391,1.124,0
	c1.747,1.737,3.495,3.474,5.233,5.216c0.301,0.298,0.4,0.652,0.257,1.071c-0.233,0.682-0.233,1.369,0.02,2.05
	c0.158,0.422,0.097,0.798-0.176,1.15c-1.783,2.317-2.974,4.914-3.563,7.775c-0.087,0.425-0.347,0.715-0.71,0.878
	c-0.734,0.334-1.284,0.838-1.691,1.535c-0.218,0.375-0.546,0.609-1.042,0.6C21.026,35.14,19.781,35.156,18.536,35.156"/>
<path fill="#FFFFFF" d="M18.542,36.844c1.243,0,2.487,0.016,3.729-0.008c0.509-0.011,0.827,0.238,1.056,0.625
	c0.392,0.668,0.922,1.166,1.631,1.486c0.397,0.18,0.671,0.476,0.762,0.925c0.588,2.847,1.775,5.422,3.542,7.731
	c0.265,0.344,0.333,0.715,0.182,1.127c-0.243,0.674-0.243,1.354-0.012,2.027c0.151,0.428,0.04,0.784-0.264,1.092
	c-1.757,1.754-3.514,3.504-5.27,5.252c-0.37,0.366-0.71,0.373-1.085,0.004c-2.053-2.006-3.79-4.258-5.194-6.766
	c-1.641-2.925-2.757-6.033-3.306-9.335c-0.188-1.134-0.271-2.282-0.385-3.427c-0.039-0.401,0.299-0.735,0.702-0.735
	C15.933,36.842,17.237,36.844,18.542,36.844"/>
<path fill="#FFFFFF" d="M33.929,35.156c-1.278,0-2.557-0.016-3.835,0.008c-0.494,0.006-0.808-0.239-1.032-0.621
	c-0.284-0.477-0.637-0.878-1.093-1.195c-0.474-0.335-0.588-0.633-0.461-1.202c0.532-2.347,1.521-4.488,2.936-6.433
	c0.32-0.438,0.689-0.656,1.273-0.466c0.589,0.195,1.196,0.159,1.782-0.043c0.449-0.157,0.815-0.05,1.14,0.274
	c1.726,1.719,3.453,3.439,5.182,5.156c0.39,0.391,0.417,0.713,0.094,1.15c-0.603,0.818-1.025,1.721-1.234,2.719
	c-0.071,0.341-0.472,0.652-0.817,0.652L33.929,35.156L33.929,35.156z"/>
<path fill="#FFFFFF" d="M33.958,36.844c1.302,0,2.606-0.002,3.91,0c0.343,0,0.741,0.312,0.812,0.65
	c0.208,0.99,0.626,1.887,1.216,2.701c0.319,0.438,0.292,0.742-0.091,1.125c-1.727,1.72-3.453,3.438-5.181,5.154
	c-0.313,0.314-0.677,0.424-1.117,0.268c-0.622-0.217-1.253-0.217-1.882-0.031c-0.518,0.152-0.828,0.055-1.155-0.391
	c-0.942-1.284-1.72-2.658-2.258-4.158c-0.275-0.764-0.467-1.562-0.716-2.336c-0.164-0.504,0.044-0.854,0.418-1.127
	c0.479-0.355,0.868-0.773,1.176-1.294c0.21-0.354,0.534-0.58,1.005-0.569C31.384,36.857,32.671,36.844,33.958,36.844"/>
<path fill="#FFFFFF" d="M31.005,22.18c0.024-0.83,0.764-1.536,1.587-1.507c0.82,0.028,1.527,0.755,1.513,1.559
	c-0.016,0.838-0.771,1.552-1.603,1.522C31.682,23.727,30.983,22.99,31.005,22.18"/>
<path fill="#FFFFFF" d="M24.673,35.99c0.004-0.809,0.739-1.541,1.542-1.541c0.813,0,1.561,0.735,1.563,1.547
	c0.002,0.811-0.743,1.549-1.56,1.551C25.41,37.557,24.666,36.807,24.673,35.99"/>
<path fill="#FFFFFF" d="M32.53,51.311c-0.813,0.008-1.562-0.734-1.56-1.547c0.003-0.812,0.743-1.551,1.558-1.545
	c0.812,0.002,1.533,0.719,1.546,1.531C34.091,50.555,33.345,51.309,32.53,51.311"/>
<path fill="#FFFFFF" d="M98.22,35.434c0,11.15-7.99,19.007-19.048,19.007c-11.056,0-19.056-7.856-19.056-19.007
	c0-10.418,9.139-17.725,19.056-17.725C89.091,17.709,98.22,25.016,98.22,35.434 M69.439,35.482c0,5.934,4.389,10.284,9.733,10.284
	c5.343,0,9.735-4.351,9.735-10.284c0-4.75-4.392-9.098-9.735-9.098C73.829,26.385,69.439,30.732,69.439,35.482"/>
<polygon fill="#FFFFFF" points="106.957,18.851 115.912,18.851 132.312,39.911 132.407,39.911 132.407,18.851 141.364,18.851 
	141.364,53.297 132.407,53.297 116.003,32.191 115.912,32.191 115.912,53.297 106.957,53.297 "/>
<polygon fill="#FFFFFF" points="160.742,26.436 160.742,32.192 170.562,32.192 170.562,39.771 160.742,39.771 160.742,53.299 
	151.787,53.299 151.787,18.852 171.568,18.852 171.568,26.436 "/>
<polygon fill="#1C1737" points="201.361,18.851 210.322,18.851 226.725,39.911 226.809,39.911 226.809,18.851 235.771,18.851 
	235.771,53.297 226.809,53.297 210.406,32.191 210.322,32.191 210.322,53.297 201.361,53.297 "/>
<path fill="#1C1737" d="M276.076,18.851v19.37c0,4.435-0.188,8.822-3.617,12.154c-2.875,2.834-7.398,3.838-11.418,3.838
	c-4.014,0-8.541-1.004-11.426-3.838c-3.428-3.332-3.604-7.721-3.604-12.154v-19.37h8.951v18.135c0,4.48,0.324,9.369,6.078,9.369
	c5.758,0,6.071-4.889,6.071-9.369V18.851H276.076z"/>
<path fill="#1C1737" d="M187.453,49.445c0,2.131-1.727,3.854-3.855,3.854c-2.131,0-3.852-1.725-3.852-3.854
	c0-2.127,1.721-3.853,3.852-3.853C185.727,45.594,187.453,47.318,187.453,49.445"/>
</svg>
